<svg xmlns="http://www.w3.org/2000/svg" width="57.266" height="20.877" viewBox="0 0 57.266 20.877"><defs><style>.a{fill:#efe6ca;}</style></defs><g transform="translate(0 0)"><path class="a" d="M114.321,28.568a2.639,2.639,0,0,1-2.115,1.584h-.031c-1.992.116-7.84.073-7.84.073L63.47,30.207l-6.325.02A14.591,14.591,0,0,0,59.081,28.3s3.6,0,5.383,0c10.217.033,32.059,0,32.059,0A.639.639,0,0,0,96.5,27.07l-28.1.006-6.461-.006c-1.025,0-.83-.677-.7-.849l3.961-4.01,6.051-6.021a3.279,3.279,0,0,0-.1,1.041,4.43,4.43,0,0,0,.2,1.056s-4.178,3.912-6.006,5.891c-.24.262-.352.959.869.961l4.826.013h26.24c1.241-.017,3.291,1.934,3.6,3.135.152,0,.346.008.531.008a.487.487,0,0,0,.418-.473,1.177,1.177,0,0,0,0-.341l0-15.9a9.951,9.951,0,0,0,1.928-2.224s-.016,15.128,0,15.527c.014.279,0,1.2,0,1.2v1.773a.484.484,0,0,0,.4.438c.057.008,5.989-.057,7.391-.031a.593.593,0,0,0,.611-.635c0-.023,0-.047,0-.068a.6.6,0,0,0-.609-.518l-3.826.053a.891.891,0,0,1-.158-.016,1.377,1.377,0,0,1-.967-1.984l1.8-3.559a2,2,0,0,1,3.546.041l2.375,6a1.348,1.348,0,0,1,.008.988m-3.955-5.334c-.025-.074-.115-.267-.26-.293-.339-.06-.505.252-.648.51l-.539.975c-.318.578.014.713.373.7l1.9.006Z" transform="translate(-57.145 -9.356)"/><path class="a" d="M110.026,19.508s-1.123-.777-1.631-1.135c.237-.484.471-.963.745-1.521.523.365,1,.666,1.429,1.015a.455.455,0,0,1,.067.457c-.162.385-.4.783-.61,1.184" transform="translate(-57.145 -9.356)"/></g></svg>