<svg xmlns="http://www.w3.org/2000/svg" width="617.049" height="5586.547" viewBox="0 0 617.049 5586.547">
  <g id="Group_2484" data-name="Group 2484" transform="translate(61.058 -356.177)">
    <g id="Colors" transform="translate(-728 128)">
      <path id="Path_2797" data-name="Path 2797" d="M88.72-.234c66.4,10.6,93.143,43.8,93.143,97.821,0,6.915,27.329,18.495,22.278,33.163-2.758,12.54-29.33,3.646-38.618,14.293-23.551,27-48.074,52.327-76.8,50.365-45.758-3.125-93.143-43.8-93.143-97.821,0-11.165-39.269-40.812-19.736-52.161,2.056-9.08,28.462,1.006,32.581-7.1C22.215,11.194,48.016-6.731,88.72-.234Z" transform="translate(829.021 1194.602) rotate(-19)" fill="#568698" opacity="0.099"/>
      <path id="Path_2798" data-name="Path 2798" d="M41.75-55.143c.352,12.389,3.783,96.07,0,127.181C39.731,83.063,48.827,79.182,63.918,84.2c5.485,1.825,13.53,11.273,29.351,10.411,2.672,3.833-11.4,9.155-11.4,9.155s36.445-8.029,37,3.377-37.064,20.4-57.8,17.273S42.41,96.639,36.882,97.5c-2.488.385-8.507,16.176-17.113,21.82-9.981,6.546-22.931,2.6-27.56-4.61C2.823,90.824,32.27,80.161,28.282,77.213s-27.03,22.741-48.609,17.4-34.228-8.564-44.018-19.768-8.728-21.212,16.9-23.154C-34.168,50.686-23.621,56.462.37,74.845c7.929,8.126,27.911-.372,30.482-7.767s-4.7-113.7-2.57-122.221,2.789-12.14,6.156-12.14S41.4-67.532,41.75-55.143Z" transform="translate(980.872 2535) rotate(180)" fill="#415a3b" opacity="0.135"/>
      <path id="Path_2799" data-name="Path 2799" d="M26.97,3.856c10.3,0,25.031,20.967,28.779,39.83,1.964,9.883-5.056,21.09-6.964,26.363.194,5.713,37.781,30.928,32.395,40.671S56.835,96.14,35.658,100-.5,129.736-9.355,121.122,14.291,86.081,10.491,76.53,11.073,3.856,26.97,3.856Z" transform="translate(1088.776 3437.492) rotate(47)" fill="#673174" opacity="0.12"/>
      <path id="Path_2805" data-name="Path 2805" d="M29.7-2.458C50.972-.583,46.172,30.662,45.492,36.557,43.8,43.316,37.314,45.905,36.6,54.791c-2.812,35.261-10.3,39.02-17.463,39.01-6.315-.009-7.026-22.744-11.042-39.01-10.134-14.24-11-23.128-11-28.209C-2.9,5.97,1.267-4.964,29.7-2.458Z" transform="translate(924 4330.832)" fill="#e2b31f" opacity="0.205"/>
      <path id="Path_2808" data-name="Path 2808" d="M-4.9-.172c16.616-10.87,49.849-10.15,66.465,0,7.594,4.639-14.453,12.941-15.931,20.053-1.677,8.076,12.839,1.344,7.723,12.366C36.741,42.4-7.2,35.558-7.2,35.558S-21.515,10.7-4.9-.172Z" transform="translate(910 5643.974)" fill="#d03333" opacity="0.166"/>
      <path id="Path_2809" data-name="Path 2809" d="M13213.086,310.279c-15.691-3.714-28.934,9.962-33.8,22.485s9.5,12.1,8.45,29.021-2.179,10.813-5.508,22.573,2.354,14.777-2.942,26.411-17.412,8.572-18.629,18.266,18.629,2.95,18.629,2.95,23.387-10.594,24.07-32.8c.365-11.835,6.084,14.964,13.655,32.8,17.443,16.635.761,25.985,3.529,46.225s21.51,44.259,21.51,44.259-2.842,25.2,7.085,33.6,22.3,6.932,23.286-18.009-49.565-98.753-17.051-86.324,15.245,67.849,41.058,65-9.993-48.39-8.047-75.453,23.224-.119,12.837-39.52c-5.36-20.334-21.8-37.645-28.8-48.554-20.4-31.8-19.328-19.039-30.371-23.338C13242.054,329.874,13228.777,313.992,13213.086,310.279Z" transform="translate(-12310 27)" fill="#fff"/>
    </g>
    <circle id="POINTER" cx="12" cy="12" r="12" transform="translate(183 848)" fill="#e2b31f"/>
    <g id="Group_2443" data-name="Group 2443">
      <path id="Path_2790" data-name="Path 2790" d="M301.077-190.031c37.355,31.673,205.165,55.087,243.11,125.2S502.313,202.628,430.314,236.909s-17.454,56.047-17,82.331c.357,20.533-7.425,41.172-11.166,49.9-18.277,29.355-41.872,55.807-88.217,55.513-39.2-.249-86.144-41.029-93.291-52.861s-11.378-26.822-11.169-52.554c.172-21.18,9.1-60.465,43.109-82.331s60.309-12.368,94.541,34.885,91.648,22.156,96.41,45.169C447.6,336.616,400.461,344,385.7,345.038a488.382,488.382,0,0,1-83.21,0c-46.194-3.861-107.5-9.07-123.306-20.8-13.484-10,24.61-27.757,55.914-25.285,27.235,2.15-34.063,90.876,39.861,180.041s226.679,87.51,205.989,26.269-361.829,94.757-399.571,234.2S22.769,1718.69,157.093,1697.93" transform="translate(-96.379 1060.5)" fill="none" stroke="#3c3c3c" stroke-linecap="round" stroke-width="1"/>
      <path id="Path_2802" data-name="Path 2802" d="M-430.966,1508.392c7.875-10.687,16.775-16.485,50.818-18.45,24.693-16.345,45.5-10.075,60.168-10.809,16.759-10.676,29.822-12.991,34.243-10.611,7.94-.04,25.953,6.544,8.884,22.885-10.951,8.01-8.1-45.926-7.175-96.59.485-26.659,1.385-62.035-4.174-69.622-8.112-3.373-23.974-.561-34.638-11.292-6.813-3.366-15.668,2.571-15.919,0,13.44-13.656,35.836-8.851,49.718-1.609,9.054,4.769,13.681,22.736,10.594,23.315s-1.035-15.716-5.8-35.534c-8.051-13.46-8.745-16.384-23.476-17.712s-56.045,7.656-58.512,16.623,47.734,9.438,49.8,3.871-30.665-12.8-33.106-5.986,51.429-2.078,62.909,16.241,10.859-15.276,23.945-20.691c11.634-4.813,27.428-8.3,28.233-3.431s-5.285,14.165-15.732,24.912-21.2,8.473-22.431,4.211,20.893-24.3,20.893-20.468-25.873,32.988-20.893,35.781,32.828-22.111,58-17.208,40.748,20.505,40.782,33.58c-4.975,11.372-12.844,6.888-24.095,5.981-6.556-.527-14.594.068-23.076,0-9.854-4.413-36.81-24.634-30.714-26.792s59.964,8.354,57.737,15.219-29.93-19.24-46.341-16.922c-13.848,1.956-24.03,1.522-32.289,16.26-3.551,6.337-2.114,29.277-2.1,51.272.014,28.717-.093,58.078,5.712,68.113,2.678,4.63,4.889,9.273,23.827,2.419,19.778-.783,53.1,4.2,73.672,20.353,18.271.851,35.709,9.264,45.217,23.5,6.96,4.246,12.218,1.617,15.22,1.393" transform="translate(491.771 1249.999)" fill="none" stroke="#3c3c3c" stroke-linecap="round" stroke-width="1"/>
      <path id="Path_2818" data-name="Path 2818" d="M-340.625,131.735c1.831-1.515-45.832-119.005-46.352-143.5s20.585-43.184,24.766-42.9c5.9,10.888,13.054,37.043,16.58,34.98s8.818-35.856,2.344-48.391-13.033-15.517-24.564-17.615c-18.259-3.322-43.094,11.993-44.213,17.615s49.15,2.077,35.911,11.866,12.051-54.463,23.821-62.752c4.826-3.4,12.619-5.982,20.536-7.795,10.913-2.5,21.871-3.354,23.616-2.517,3.656,1.752-1.2,31.877-6.676,43.583s-38.641,28.229-56.82,38.628c-1.6.915-4.653,1.549-9.161,2.025C-424.58-40.4-596.68-55.54-606.2,17.767c-10.436,80.381,139.785,168.629,12.82,197.9S-775.328,22.1-704.9-100.919s405.887-1.255,393.6-161.017-315.821,52.822-325.039-128.628,335.465-17.607,278.258-176.709-253.861,25.91-243.072-157.234c10.033-170.322,498.068-24.279,317.7-192.556-13.273-12.383-29.815-47.853-52.234-43.287" transform="matrix(0.999, 0.035, -0.035, 0.999, 682.553, 3732.084)" fill="none" stroke="#3c3c3c" stroke-width="1"/>
      <path id="Path_2795" data-name="Path 2795" d="M358.285,2585.542c13.81,48.886,101.1,155.253,121.506,215.9s82.244,208.7,16.33,221.545c-64.924,12.65-91.037,255.319-173.951,262.22-.481.04-9.5-45.659-38.5-34.6-13.862,5.286-19.605,11.434-25.026,26.755s-11.877,17.163-15.114,20.124c-7.684,7.026-13.314,13.727-12.085,19.807.483,2.4.59,8.36,4.157,8.5,15.373.625,33.408-40.32,65.152-32.61,3.509,1.544-10.984,19.585-31.228,24.106s-34.815-3.055-49.749-6.022c-21.424-10.138-35.427-16.792-52.522-28.071-7.123-14.635,16.337-12.681,36.013,0,39.994,11.391,44.048-1.023,44.709-3.441s-23.609-6.05-21.655,0c1.684,5.215,23.36-2.377,22.46-7.275s-24.239-5.6-23.592,0,25.095-1.5,24.319-6.738-26.828-3.085-24.977,0,17.319.441,24.977-4.192c2.312-1.4,1.248-3.21,4.568-13.825s15.811-13.569,10.363-32.619-20.823-21.588-26.73-21.532c-4.675-.053-24.84,2.528-28.28,21.532-1.366,11.435.331,17.221,10.044,28.884,3.962,6.736.3,10.459,4.1,13.672,9.315,3.976,20.33,1.423,22.51-.7.889-.866,1.076-6.019,3.425-11.085,6.21-7.629,8.689-16.872,8.091-19.678-1.522-7.132-10.836-13.008-11.515-19.231-.322-2.949-.361-12.934,7.993-14.591s17.062,2.143,26.861,0c7.048-1.541,9.354-9.043,7.25-10.344-6.891-4.259-37.324-10.4-55.389-14.735-4.689-.6-21.477,1.027-54.228,7.156-13.589,15.252-21.808,26.164-23.44,30.122s10.284,3.077,19.883-5.656c16.865-15.344,25.063-40.011,32.534-40.961s15.1,18.285.846,30.531c-14.114,14.54-.7,48.181-29.824,57.386s-33.845-22.818-41.971-24.373c-5.156,1.9-12.747,12.146-21.611,18.42-4.079,2.887-15.889,5.609-20.472,10.68-5.852,6.475-14.139,66.685-14.139,66.685" transform="translate(-21 1264.045)" fill="none" stroke="#3c3c3c" stroke-width="1"/>
      <path id="Path_2812" data-name="Path 2812" d="M1064.748,2637.425c-13.215-37-61.964-86.928-115.931-65.023s-47.767,107.321-74.005,101.8c-41.461-8.723-34.493-54.777-34.493-54.777s8.2-4.494,11.453-2.449.968,11.625-3.494,8.836c-2.294-1.434-12.409-25.426-13.1-48.487-.457-15.321-4.823-133.615,11.67-126.665s2.6,55.685,2.933,54.126c2.386-11.213,10.151-8.492,14.4-5.649s-5.6,15.557-9.852,14.552-7.035-12.827-3.323-18.685c3.055-4.821,18.632-1.557,19.264-6.1.43-3.092,2.5-.5.28-20.382-1-8.974-.9-16.926-8.5-28.76s-13.369-6.387-21.887-18.578-1.756-19.573-12.972-26.252-31.094-4.372-35.886,8.24,4.8,35.676,13.285,43.774,23.653-10.689,24.51-20.34-8.619-15.618-19.144-20.183-17.455-3.278-21.119,5.393,1.533,20.9,10.632,29.288,14.342,7.418,24.268,4.587,15.071-18.132,11.039-15.332,18.6,65.676,7.562,79.77-36.727,8.116-53.625,7.6-4.5-19.525-2.7-12.714c.5,1.9-1.984,4.843-3.26,16.611-5.263,1.385-17.312,11.094-19.927,23.09-4.357,19.989.085,47.569.085,47.569s-10.2,27.112-6.35,35.642,22.3,5.988,30.055-6.383-23.09-22.242-26.5-17.576,23.131,8.3,26.5-8.575c1.35-6.751-5.493-20.367-3.872-33.255,2.354-18.721,22.173-27.045,26.663-27.511,7.484-.777,17.523,52.606,8.05,60.7s5.923-34.517-5.07-61.686-18.653-26.5-26.374-40.634-1.418-43.057,2.819-42.584-10.366,27.962-24.266,36.993-43.024-5.228-31.336-9.972,27.961-7.676,41.4-17.417,12.938-18.06,12.363-21.55c-.408-2.478-3.163-1.744-15.1,8-4.022,3.283-2.127,8.628-6.251,13.552-6.8,8.112-19.27,15.961-26.393,17.417-8.9,1.819-144.393,118.513-64.4,295.4" transform="translate(-1617.042 -1325.592) rotate(-26)" fill="none" stroke="#3c3c3c" stroke-width="1"/>
      <path id="Path_2796" data-name="Path 2796" d="M258.843,2348.461c-4.9,27.775-122.214,210.2-115.232,268.074,5.025,41.657-9.326,1012.48,32.876,1077.463s139.731-100.6,425.819,7.087c20.721,11.736-225.73-10.218-231.822-10.346,2.327-.087,8.826-183.776-6.164-165.521s56.542-1.643,73.4,8.388-16.949,15.786-3.515,31.677-60.676,7.068-75.706,5.135" transform="translate(-199.415 2232.608)" fill="none" stroke="#3c3c3c" stroke-width="1"/>
    </g>
  </g>
</svg>
