<svg xmlns="http://www.w3.org/2000/svg" width="1285.016" height="5046.453" viewBox="0 0 1285.016 5046.453">
  <defs>
    <style>
      .cls-1, .cls-2, .cls-3 {
        fill: none;
      }

      .cls-1, .cls-2 {
        stroke: #000;
      }

      .cls-2 {
        stroke-linecap: round;
      }
    </style>
  </defs>
  <g id="Paths" transform="translate(-30 -179.408)">
    <path id="Path_2812" data-name="Path 2812" class="cls-1" d="M1184.941,2686.808c-15.866-44.427-74.4-104.367-139.189-78.068S988.4,2737.591,956.9,2730.963c-49.778-10.473-41.414-65.766-41.414-65.766s9.845-5.4,13.75-2.94,1.163,13.957-4.2,10.608c-2.754-1.721-14.9-30.527-15.725-58.215-.549-18.395-5.791-160.421,14.012-152.076s3.123,66.856,3.522,64.985c2.865-13.463,12.188-10.2,17.291-6.782s-6.726,18.678-11.829,17.471-8.446-15.4-3.99-22.434c3.668-5.789,22.369-1.87,23.129-7.329.516-3.712,3-.594.336-24.471-1.2-10.775-1.082-20.321-10.2-34.53s-16.051-7.668-26.278-22.3-2.108-23.5-15.574-31.518-37.332-5.25-43.086,9.893,5.766,42.833,15.95,52.556,28.4-12.833,29.428-24.42-10.348-18.751-22.984-24.232-20.957-3.935-25.356,6.475,1.841,25.088,12.766,35.164,17.219,8.906,29.137,5.507,18.095-21.769,13.254-18.407,22.331,78.851,9.08,95.773-44.1,9.744-64.383,9.12-5.4-23.442-3.238-15.265c.6,2.281-2.382,5.814-3.914,19.943-6.318,1.663-20.785,13.32-23.924,27.723-5.231,24,.1,57.112.1,57.112s-12.248,32.551-7.624,42.792,26.778,7.189,36.084-7.664-27.722-26.7-31.822-21.1,27.771,9.969,31.822-10.3c1.62-8.106-6.595-24.453-4.649-39.927,2.826-22.477,26.621-32.471,32.012-33.031,8.985-.933,21.039,63.16,9.665,72.88s7.112-41.441-6.087-74.061-22.4-31.821-31.665-48.786-1.7-51.695,3.385-51.127-12.445,33.571-29.134,44.414-51.656-6.276-37.622-11.973,33.571-9.215,49.709-20.912,15.534-21.683,14.844-25.874c-.49-2.975-3.8-2.094-18.128,9.6-4.829,3.942-2.554,10.359-7.506,16.271-8.159,9.739-23.136,19.163-31.688,20.912C783.476,2496.91,571.684,2492,468,2680.446" transform="translate(-947.947 -1449.655) rotate(-26)"/>
    <path id="Path_2790" data-name="Path 2790" class="cls-2" d="M16.21,5.888s-.012,37.794,0,38.029c.429,31.981,4.573,61.512,49.748,81.221s144.016-16.267,199.215,12.081c44.711,22.962,126.4,124.453,155.92,162.307,3.352,4.3,19.067,33.131,19.573,62.2.4,22.712-8.213,45.541-12.351,55.2-20.216,32.47-46.316,61.73-97.579,61.4-43.356-.275-95.286-45.383-103.191-58.47s-12.585-29.669-12.354-58.131c.19-23.428,10.064-66.881,47.683-91.068s66.708-13.68,104.574,38.587,101.374,24.507,106.641,49.962c4.5,21.739-47.643,29.911-63.97,31.055s-46.595,3.8-92.04,0c-51.1-4.271-118.906-10.032-136.391-23.006-14.915-11.066,27.221-30.7,61.848-27.968,30.125,2.379-37.678,100.519,44.091,199.147S625.794,631.027,454.546,815.58s-228.871,5.4-419.845-53.995-600,131.041-555.69-65.971c37.614-114.337,162.129-58.673,156.74,14.377-1.7,121.592-400.139,883.189-111.651,805.126" transform="translate(631.5 748.5)"/>
    <path id="Path_2802" data-name="Path 2802" class="cls-2" d="M-420.132,1596.905c10.957-14.869,23.241-22.93,70.608-25.664,34.359-22.743,63.31-14.019,83.718-15.039,23.319-14.855,41.495-18.076,47.647-14.764,11.048-.055,36.111,9.105,12.362,31.843-15.238,11.146-11.265-63.9-9.983-134.4.675-37.093,1.927-86.317-5.808-96.872-11.287-4.693-33.358-.781-48.2-15.712-9.48-4.684-21.8,3.577-22.15,0,18.7-19,49.863-12.316,69.178-2.239,12.6,6.636,19.037,31.635,14.741,32.441s-1.439-21.867-8.076-49.443c-11.2-18.728-12.167-22.8-32.665-24.644s-77.981,10.652-81.415,23.129,66.418,13.132,69.286,5.386-42.667-17.817-46.065-8.329,71.559-2.892,87.532,22.6,15.109-21.256,33.318-28.789c16.188-6.7,38.164-11.55,39.283-4.774s-7.354,19.709-21.89,34.663-29.5,11.79-31.21,5.86,29.071-33.806,29.071-28.479-36,45.9-29.071,49.786,45.677-30.765,80.7-23.944,56.7,28.531,56.744,46.723c-6.923,15.823-17.871,9.584-33.526,8.322-9.122-.734-20.307.094-32.109,0-13.712-6.141-51.218-34.276-42.735-37.279s83.434,11.624,80.337,21.176-41.645-26.77-64.48-23.546c-19.268,2.721-33.436,2.118-44.928,22.624-4.941,8.818-2.942,40.736-2.927,71.34.02,39.957-.129,80.811,7.948,94.774,3.727,6.442,6.8,12.9,33.154,3.366,27.52-1.09,73.882,5.84,102.508,28.32,25.423,1.184,49.686,12.89,62.915,32.694,9.684,5.908,17.679,2.953,19.1,2.524" transform="translate(575.771 666.688)"/>
    <path id="Path_2791" data-name="Path 2791" class="cls-2" d="M-507.942,216.246c13.511-3.262,43.741,16.709,68.877,30.435,74.781,18.867,169.858,142.6,145.383,229.613-32.461,115.4-232.2,141.318-497.843-42.869S-1041.67,649.2-1029.394,729.807" transform="translate(1106.5 2051)"/>
    <path id="Path_2800" data-name="Path 2800" class="cls-2" d="M121.107,212.568" transform="translate(651.5 1987)"/>
    <path id="Path_2792" data-name="Path 2792" class="cls-3" d="M0-476.589H1235.086V98.243H0Z" transform="translate(30 1806.935)"/>
    <path id="Path_2793" data-name="Path 2793" class="cls-1" d="M-136.655,206.6c-.337-3.166-56.5-146.324-57.146-176.508s25.366-53.215,30.52-52.863c7.273,13.418,16.087,45.648,20.432,43.106s10.866-44.185,2.889-59.632-16.061-19.121-30.271-21.707c-22.5-4.094-53.1,14.779-54.483,21.707s60.567,2.559,44.253,14.623,14.85-67.115,29.354-77.329c5.947-4.188,15.55-7.371,25.306-9.605,13.448-3.079,26.951-4.133,29.1-3.1,4.506,2.159-1.483,39.281-8.227,53.707s-47.617,34.786-70.019,47.6-276.141-19.167-289,79.886,172.256,207.8,15.8,243.875S-614.131,173.082-720.137,164.412s-71,128.956-246.415,89.437c-136.12-30.667-354.13,107.141-193.246,185.58s-4.962-205.991-14.926-274.879" transform="translate(1251.793 2616.061)"/>
    <path id="Path_2795" data-name="Path 2795" class="cls-1" d="M1114.847,2821.657c26.387,93.409,87.908,259.64,104.55,370.454s-33.662,139.863-116.254,149.188S1000.7,3184.7,874.756,3209.244C750.7,3233.415,700.808,3697.092,542.38,3710.279c-.919.077-18.15-87.242-73.562-66.113-26.487,10.1-37.461,21.847-47.817,51.121s-22.693,32.794-28.879,38.451c-14.681,13.425-25.44,26.229-23.092,37.846.923,4.584,1.128,15.973,7.942,16.25,29.373,1.193,63.835-77.041,124.489-62.31,6.7,2.95-20.988,37.422-59.669,46.06s-66.522-5.838-95.057-11.506c-40.936-19.372-67.691-32.086-100.356-53.637-13.611-27.965,31.216-24.231,68.813,0,76.419,21.765,84.164-1.955,85.427-6.574s-45.11-11.56-41.378,0c3.217,9.965,44.635-4.542,42.915-13.9s-46.314-10.7-45.078,0,47.949-2.858,46.467-12.875-51.262-5.9-47.725,0,33.093.843,47.725-8.01c4.418-2.673,2.384-6.134,8.728-26.416s30.211-25.927,19.8-62.326S392.286,3535.091,381,3535.2c-8.933-.1-47.462,4.83-54.036,41.142-2.61,21.849.633,32.905,19.191,55.189,7.57,12.871.579,19.984,7.834,26.123,17.8,7.6,38.846,2.719,43.011-1.338,1.7-1.655,2.057-11.5,6.544-21.18,11.865-14.577,16.6-32.239,15.459-37.6-2.908-13.626-20.706-24.854-22-36.746-.615-5.634-.69-24.713,15.272-27.879s32.6,4.095,51.325,0c13.467-2.945,17.873-17.279,13.853-19.764-13.167-8.137-71.316-19.878-105.834-28.154-8.959-1.153-41.037,1.962-103.615,13.673-25.965,29.143-41.669,49.993-44.787,57.556s19.65,5.879,37.991-10.808c32.224-29.318,47.889-76.451,62.165-78.266s28.849,34.938,1.616,58.337c-26.968,27.781-1.334,92.062-56.985,109.65s-64.67-43.6-80.2-46.571c-9.852,3.629-24.356,23.208-41.293,35.2-7.794,5.516-30.361,10.718-39.117,20.408-11.182,12.373-27.016,127.418-27.016,127.418"/>
    <path id="Path_2796" data-name="Path 2796" class="cls-1" d="M47.8,2779.552c-7.68,43.57-21.939,142.2-10.988,232.993,7.882,65.347,48.7,126.8,51.571,201.01,2.04,52.768-40.191,115.49-40.191,229s56.205,338.021,40.191,431.3c-26.886,156.614-123.4,232.54-57.2,334.478s774.793-151.561,1223.572,17.373c32.5,18.41-668.8-15.71-678.359-15.913,3.65-.137,13.846-288.286-9.67-259.649s88.7-2.578,115.143,13.158-26.588,24.763-5.514,49.69-95.182,11.088-118.758,8.055" transform="translate(32.585 992)"/>
  </g>
</svg>
