<svg xmlns="http://www.w3.org/2000/svg" width="951.049" height="4713.127" viewBox="0 0 951.049 4713.127">
  <defs>
    <style>
      .cls-1 {
        fill: #568698;
        opacity: 0.099;
      }

      .cls-2 {
        fill: #415a3b;
        opacity: 0.135;
      }

      .cls-3 {
        fill: #673174;
        opacity: 0.12;
      }

      .cls-4 {
        fill: #e2b31f;
        opacity: 0.205;
      }

      .cls-5 {
        fill: #d03333;
        opacity: 0.166;
      }

      .cls-6 {
        fill: #fff;
      }
    </style>
  </defs>
  <g id="Shapes" transform="translate(-252 -311.659)">
    <path id="Path_2797" data-name="Path 2797" class="cls-1" d="M109.5,0C187.562,12.46,219,51.487,219,115c0,8.13,32.128,21.743,26.19,38.987-3.242,14.742-34.481,4.286-45.4,16.8C172.1,202.527,143.274,232.306,109.5,230,55.706,226.326,0,178.513,0,115c0-13.125-46.165-47.98-23.2-61.322,2.417-10.675,33.46,1.182,38.3-8.343C31.316,13.436,61.648-7.638,109.5,0Z" transform="translate(824.752 1052.877) rotate(-19)"/>
    <path id="Path_2798" data-name="Path 2798" class="cls-2" d="M87.52-50.173c.5,17.46,5.331,135.4,0,179.243-2.846,15.538,9.973,10.068,31.242,17.144,7.731,2.572,19.068,15.887,41.366,14.672,3.766,5.4-16.068,12.9-16.068,12.9s51.364-11.316,52.143,4.759-52.236,28.745-81.464,24.344-26.289-39.15-34.08-37.944c-3.506.543-11.989,22.8-24.119,30.752-14.067,9.225-32.319,3.667-38.842-6.5,14.96-33.657,56.46-48.686,50.84-52.84S30.444,168.413.032,160.886-48.208,148.816-62,133.026s-12.3-29.9,23.819-32.632c18.71-1.418,33.574,6.723,67.386,32.632,11.174,11.452,39.336-.524,42.96-10.947S65.531-38.169,68.539-50.173s3.931-17.109,8.676-17.109S87.024-67.634,87.52-50.173Z" transform="translate(448.211 2159) rotate(180)"/>
    <path id="Path_2799" data-name="Path 2799" class="cls-3" d="M34.525,3.856c12.357,0,30.026,25.151,34.522,47.779,2.356,11.855-6.064,25.3-8.353,31.624.233,6.853,45.32,37.1,38.859,48.787s-29.2-17.491-54.607-12.863-43.367,35.673-54,25.34,28.364-42.034,23.807-53.491S15.456,3.856,34.525,3.856Z" transform="translate(1137.542 2477.781) rotate(47)"/>
    <path id="Path_2805" data-name="Path 2805" class="cls-4" d="M74.176-2.177c50.279,3.366,38.932,59.458,37.324,70.041C107.5,80,92.168,84.647,90.492,100.6c-6.648,63.3-24.338,70.05-41.28,70.033C34.284,170.617,32.6,129.8,23.11,100.6-.845,75.036-2.9,59.079-2.9,49.957-2.9,12.954,6.957-6.676,74.176-2.177Z" transform="translate(320 3535)"/>
    <path id="Path_2808" data-name="Path 2808" class="cls-5" d="M0,4.637c26.75-17.5,80.25-16.341,107,0C119.225,12.1,83.733,25.47,81.353,36.92c-2.7,13,20.669,2.164,12.433,19.908C67.035,73.169-3.707,62.157-3.707,62.157S-26.75,22.137,0,4.637Z" transform="translate(615 4959)"/>
    <path id="Path_2809" data-name="Path 2809" class="cls-6" d="M13223.147,310.4c-18.7-4.426-34.48,11.872-40.276,26.8s11.325,14.419,10.07,34.586-2.6,12.886-6.563,26.9,2.8,17.61-3.507,31.475-20.751,10.216-22.2,21.768,22.2,3.516,22.2,3.516,27.87-12.625,28.686-39.088c.435-14.1,7.25,17.833,16.273,39.088,20.787,19.824.906,30.967,4.205,55.088s25.635,52.745,25.635,52.745-3.387,30.036,8.443,40.048,26.573,8.261,27.75-21.462-59.068-117.687-20.319-102.875,18.168,80.858,48.93,77.459-11.91-57.668-9.59-89.92,27.676-.142,15.3-47.1c-6.388-24.233-25.979-44.863-34.318-57.863-24.312-37.9-23.034-22.689-36.193-27.812C13257.67,333.749,13241.848,314.823,13223.147,310.4Z" transform="translate(-12316 2)"/>
  </g>
</svg>
