<svg xmlns="http://www.w3.org/2000/svg" width="1306.45" height="98.7" viewBox="0 0 1306.45 98.7">
  <path id="Path_2820" data-name="Path 2820" d="M6845.5-2259.717s362.66,8.082,450.98,5.217,4.066-26.863,35.981-49.278c15.16-10.647,30.27,4.2,53.938,9.8,25.529,6.045,60.011-.795,54.9-9.8-9.735-17.162-30.709,71.728-58.792,89.123s-76.137-17.234-42.977-24.031c13.563-2.78,45.387-5.589,73.84-15.814,42.883-18.225,75.413-47.466,61.6-49.278-23.365-3.066-38.886,81.959-59.619,81.266s34.2-38.031,44.542-37.205c8.174,9.987-32.474,39.036-9.578,39.332,6.334.082,81-44.444,35.035-37.269-18.286,7.775-24.553,25.324-20.542,29.42,4.642,24.1,60.28-35.425,44.026-29.42-7.916,2.925-13.343,11.056-15.917,19.048-2.528,7.838-1.881,15.49,2.559,16.095,1.29.176,49.7-27.8,39.54-35.143s.8,26.536-16.807,35.143,31.92-36.974,36.271-37.205c7.418-.394-17.835,37.469-9.029,37.205,2.771-.083,10.7-4.582,20.4-13.512,22.376-20.616,53.978-58.222,48.866-67.754-14.515-15.708-29.786,97.609-44.279,80.275,6-14.226,11.786-21.585,19.588-28.024,2.889-2.385,9.027-6.7,11.324-8.19,10.9-.831,8.89.948-9.753,12.993-8.98,5.8-2.011-11.01,2.55,18.79s67.875-38.923,40.577-29.779c-7.127,3.587,35.783,40.315-9.066,37.948-22.8-6.106,47.2-33.546,124.715-31.763,92.375-7.131,401.565-8.19,401.565-8.19" transform="translate(-6845.489 2308.007)" fill="none" stroke="#000" stroke-width="1"/>
</svg>
