<svg xmlns="http://www.w3.org/2000/svg" width="784.25" height="159.824" viewBox="0 0 784.25 159.824">
  <path id="Path_2819" data-name="Path 2819" d="M88.541,172.114c36.707,3.341,70.852-.747,72.7,0s-9.6,10.943-9.135,2.247,15.373-.327,8.695,6.787-6.784-9.258-1.608-9.035c2.577.111,43.027,2.431,81.906,2.247,38.843-.183,76.114-2.871,77.649-3.243,3.059-.742,7.081.623,7.452-1.7s1.847-9.322,3.185-14.981.529-8.515-4.679-5.565-16.273,11.73-15,12.9c.458.422,3.149,1.745,8.425-1.89,4.67-7.736,9.674-11.392,11.584-10.6,2.984,1.237-2.866,19.33.426,21.244,2.67,1.552-22.76,12.435,76.749,0,18.26-3.962,58.919,2.867,68.232-1.763,2.191-2.472-1-25.517-.874-32.9s-11.951-15.264-15.336-12.492c-1.408,1.153,1.111,5.573,4.638,8.464,4.528,3.713,11.5,5.451,3.743-2.515-6.732-6.916-12.807,3.3,6.407,9.438,2.909-1.419,3.548,20.81,7.079,29.164,4.384,2.625,18.764,1.99,56.731,1.8,38.148-.188,62.6,12.165,95.559-1.763,1.431-2.087,6.925-45.919,4.2-57.483-1.289-5.47-4.315-15.562-4.2-21.885.12-6.616,5.383-8.255,6.925-4.927,1.478,10.3-30.586.215-27.948-5.208,1.564-3.215,10.821-3.276,25.761,6.863,18.152,5.367,15.631-7.163,12.868-16.639-1.629-5.588-13.347-1.969-15.541,9.776s7.079,16.484,5.839,26.016-2.34,45.022-3.167,52.246c.256,6.882.434,11.829,3.167,13,20.265,9.783,103.216,4.863,146.148,0,9.763-2.991-6.886-.063,7.528-96.767.058-.388,1.171-15.925-4.99-29.711-4.43-9.913-16.194-20.149-17.943-15.979-1.773,4.228,4.548,8.969,12.306,8.373,4.715.086,20.917-8.037,10.627-11.225-6.051-1.875-9.492,8.268-6.07,13.726,6.486,10.348,6.82,27.467,3.7,28.615S768.019,55.4,774.453,46.089s14.729,9.856,11.344,13.455-41.169-9.584-29.815-23.9c4.723-5.957,19.6,30.44,40.582,34.832,2.053.43,15.6-11.716,33.344-5.628,15.088,2.749,27.129-4.832,27.964-7.41,1.723-5.315-46.507-5.139-38.591,2.111,45.53-.9,19.016-13.122,8.946-10.623-11.764,2.92-27.723,16.826-30.271,24.035-7.285,33.461-5.51,92.064-1.889,95.806,2.763,2.855,31.458,1.353,45.113.468,3.969-.257,31.561,0,31.561,0" transform="translate(-88.495 -23.633)" fill="none" stroke="#000" stroke-width="1"/>
</svg>
